<svg aria-hidden="true" style="position: absolute; width: 0; height: 0; overflow: hidden;" version="1.1" xmlns="http://www.w3.org/2000/svg" xmlns:xlink="http://www.w3.org/1999/xlink">
<defs>
<symbol id="icon-bookmark" viewBox="0 0 20 20">
<title>bookmark</title>
<path d="M14 2v17l-4-4-4 4v-17c0-0.553 0.585-1.020 1-1h6c0.689-0.020 1 0.447 1 1z"></path>
</symbol>
<symbol id="icon-aircraft" viewBox="0 0 20 20">
<title>aircraft</title>
<path d="M12.496 17.414c-0.394-1.096-1.805-4.775-2.39-6.297-1.103 0.737-2.334 1.435-3.512 1.928-0.366 1.28-1.094 3.709-1.446 4.033-0.604 0.557-0.832 0.485-0.925-0.279s-0.485-3.236-0.485-3.236-2.162-1.219-2.84-1.568-0.667-0.591 0.057-0.974c0.422-0.223 2.927-0.085 4.242 0.005 0.861-0.951 1.931-1.882 2.993-2.679-1.215-1.076-4.15-3.675-5.034-4.424-0.776-0.658 0.079-0.797 0.079-0.797 0.39-0.070 1.222-0.132 1.628-0.009 2.524 0.763 6.442 2.068 7.363 2.376 0.353-0.249 0.737-0.52 1.162-0.821 4.702-3.33 5.887-2.593 6.111-2.27s0.503 1.701-4.199 5.032c-0.425 0.301-0.808 0.573-1.16 0.823-0.029 0.98-0.157 5.151-0.311 7.811-0.025 0.428-0.367 1.198-0.565 1.544-0.001 0-0.423 0.765-0.768-0.198z"></path>
</symbol>
<symbol id="icon-bucket" viewBox="0 0 20 20">
<title>bucket</title>
<path d="M11 1c-4.908 0-7.998 1.592-7.79 2.95 0.060 0.389 0.225 1.945 0.434 3.273-2.405 0.934-3.202 2.449-3.095 3.684 0.127 1.461 1.441 3.025 4.328 3.295 1.648 0.154 3.631-0.75 4.916-2.295-0.122-0.207-0.193-0.45-0.193-0.707 0-0.774 0.627-1.4 1.4-1.4s1.4 0.627 1.4 1.4c0 0.762-0.61 1.381-1.369 1.398-1.529 1.973-3.858 3.164-6.064 3.025 0.051 0.324 0.070 0.947 0.096 1.113 0.090 0.579 2.347 2.26 5.937 2.264 3.59-0.004 5.847-1.685 5.938-2.263 0.088-0.577 1.641-11.409 1.852-12.787 0.208-1.358-2.883-2.95-7.79-2.95zM1.943 10.785c-0.055-0.643 0.455-1.498 1.924-2.139 0.211 1.34 0.441 2.797 0.643 4.074-1.604-0.313-2.498-1.149-2.567-1.935zM11 6.024c-3.59-0.002-6.137-1.334-6.137-1.832-0.002-0.494 2.547-1.79 6.137-1.788 3.59-0.002 6.139 1.294 6.137 1.788 0 0.498-2.547 1.83-6.137 1.832z"></path>
</symbol>
<symbol id="icon-drink" viewBox="0 0 20 20">
<title>drink</title>
<path d="M17.538 2.639c0.394-0.545 0.462-1.639 0.462-1.639h-16c0 0 0.068 1.094 0.462 1.639l6.538 8.361v6h-2c-2 0-2 2-2 2h10c0 0 0-2-2-2h-2v-6l6.538-8.361zM9.4 6c0-0.885 0.716-1.6 1.6-1.6s1.6 0.715 1.6 1.6c0 0.883-0.716 1.6-1.6 1.6s-1.6-0.717-1.6-1.6z"></path>
</symbol>
<symbol id="icon-emoji-happy" viewBox="0 0 20 20">
<title>emoji-happy</title>
<path d="M10 0.4c-5.302 0-9.6 4.298-9.6 9.6s4.298 9.6 9.6 9.6c5.301 0 9.6-4.298 9.6-9.601 0-5.301-4.299-9.599-9.6-9.599zM10 17.599c-4.197 0-7.6-3.402-7.6-7.6s3.402-7.599 7.6-7.599c4.197 0 7.601 3.402 7.601 7.6s-3.404 7.599-7.601 7.599zM7.501 9.75c0.828 0 1.499-0.783 1.499-1.75s-0.672-1.75-1.5-1.75-1.5 0.783-1.5 1.75 0.672 1.75 1.501 1.75zM12.5 9.75c0.829 0 1.5-0.783 1.5-1.75s-0.672-1.75-1.5-1.75-1.5 0.784-1.5 1.75 0.672 1.75 1.5 1.75zM14.341 11.336c-0.363-0.186-0.815-0.043-1.008 0.32-0.034 0.066-0.869 1.593-3.332 1.593-2.451 0-3.291-1.513-3.333-1.592-0.188-0.365-0.632-0.514-1.004-0.329-0.37 0.186-0.52 0.636-0.335 1.007 0.050 0.099 1.248 2.414 4.672 2.414 3.425 0 4.621-2.316 4.67-2.415 0.184-0.367 0.036-0.81-0.33-0.998z"></path>
</symbol>
<symbol id="icon-feather" viewBox="0 0 20 20">
<title>feather</title>
<path d="M4.254 19.567c0.307-0.982 0.77-2.364 1.391-4.362 2.707-0.429 3.827 0.341 5.546-2.729-1.395 0.427-3.077-0.792-2.987-1.321s3.913 0.381 6.416-3.173c-3.155 0.696-4.164-0.836-3.757-1.067 0.939-0.534 3.726-0.222 5.212-1.669 0.766-0.745 1.125-2.556 0.813-3.202-0.374-0.781-2.656-1.946-3.914-1.836s-3.231 4.79-3.817 4.754c-0.584-0.037-0.703-2.098 0.319-4.013-1.077 0.477-3.051 1.959-3.67 3.226-1.153 2.357 0.108 7.766-0.296 7.958s-1.766-2.481-2.172-3.694c-0.555 1.859-0.568 3.721 1.053 6.194-0.611 1.623-0.945 3.491-0.996 4.441-0.024 0.759 0.724 0.922 0.859 0.493z"></path>
</symbol>
<symbol id="icon-help" viewBox="0 0 20 20">
<title>help</title>
<path d="M14.090 2.233c-1.14-0.822-2.572-1.233-4.296-1.233-1.311 0-2.418 0.289-3.317 0.868-1.427 0.906-2.185 2.445-2.277 4.615h3.307c0-0.633 0.185-1.24 0.553-1.828 0.369-0.586 0.995-0.879 1.878-0.879 0.898 0 1.517 0.238 1.854 0.713 0.339 0.477 0.508 1.004 0.508 1.582 0 0.504-0.252 0.965-0.557 1.383-0.167 0.244-0.387 0.469-0.661 0.674 0 0-1.793 1.15-2.58 2.074-0.456 0.535-0.497 1.338-0.538 2.488-0.002 0.082 0.029 0.252 0.315 0.252s2.316 0 2.571 0c0.256 0 0.309-0.189 0.312-0.274 0.018-0.418 0.064-0.633 0.141-0.875 0.144-0.457 0.538-0.855 0.979-1.199l0.91-0.627c0.822-0.641 1.477-1.166 1.767-1.578 0.494-0.676 0.842-1.51 0.842-2.5-0.001-1.615-0.571-2.832-1.711-3.656zM9.741 14.924c-1.139-0.035-2.079 0.754-2.115 1.99-0.035 1.234 0.858 2.051 1.998 2.084 1.189 0.035 2.104-0.727 2.141-1.963 0.034-1.236-0.834-2.076-2.024-2.111z"></path>
</symbol>
<symbol id="icon-home" viewBox="0 0 20 20">
<title>home</title>
<path d="M18.672 11h-1.672v6c0 0.445-0.194 1-1 1h-4v-6h-4v6h-4c-0.806 0-1-0.555-1-1v-6h-1.672c-0.598 0-0.47-0.324-0.060-0.748l8.024-8.032c0.195-0.202 0.451-0.302 0.708-0.312 0.257 0.010 0.513 0.109 0.708 0.312l8.023 8.031c0.411 0.425 0.539 0.749-0.059 0.749z"></path>
</symbol>
<symbol id="icon-lab-flask" viewBox="0 0 20 20">
<title>lab-flask</title>
<path d="M16.432 15c-2.045-5.107-4.432-6.453-4.432-9v-3h0.5c0.276 0 0.5-0.224 0.5-0.5v-1c0-0.276-0.224-0.5-0.5-0.5h-5c-0.276 0-0.5 0.224-0.5 0.5v1c0 0.276 0.224 0.5 0.5 0.5h0.5v3c0 2.547-2.387 3.893-4.432 9-0.651 1.625-2.323 4 6.432 4s7.083-2.375 6.432-4zM14.815 16.751c-0.702 0.21-2.099 0.449-4.815 0.449s-4.113-0.239-4.815-0.449c-0.249-0.074-0.346-0.363-0.258-0.628 0.22-0.67 0.635-1.828 1.411-3.121 1.896-3.159 3.863 0.497 5.5 0.497s1.188-1.561 1.824-0.497c0.774 1.294 1.191 2.451 1.411 3.121 0.088 0.265-0.009 0.553-0.258 0.628z"></path>
</symbol>
<symbol id="icon-light-up" viewBox="0 0 20 20">
<title>light-up</title>
<path d="M19 9.199c-0.182 0-0.799 0-0.98 0-0.553 0-1 0.359-1 0.801s0.447 0.799 1 0.799c0.182 0 0.799 0 0.98 0 0.552 0 1-0.357 1-0.799 0-0.441-0.449-0.801-1-0.801zM10 4.5c-3.051 0-5.5 2.449-5.5 5.5s2.449 5.5 5.5 5.5c3.050 0 5.5-2.449 5.5-5.5s-2.451-5.5-5.5-5.5zM10 14c-2.211 0-4-1.791-4-4 0-2.211 1.789-4 4-4 2.209 0 4 1.789 4 4 0 2.209-1.791 4-4 4zM3 10c0-0.441-0.449-0.801-1-0.801-0.185 0-0.816 0-1 0-0.553 0-1 0.359-1 0.801s0.447 0.799 1 0.799c0.184 0 0.815 0 1 0 0.551 0 1-0.358 1-0.799zM10 3c0.441 0 0.799-0.447 0.799-1 0-0.184 0-0.816 0-1 0-0.553-0.358-1-0.799-1s-0.801 0.447-0.801 1c0 0.184 0 0.816 0 1 0 0.553 0.359 1 0.801 1zM10 17c-0.442 0-0.801 0.447-0.801 1 0 0.184 0 0.816 0 1 0 0.553 0.359 1 0.801 1s0.799-0.447 0.799-1c0-0.184 0-0.816 0-1 0-0.553-0.358-1-0.799-1zM17.365 3.766c0.391-0.391 0.454-0.961 0.142-1.273s-0.883-0.248-1.272 0.143c-0.108 0.107-0.593 0.592-0.7 0.699-0.391 0.391-0.454 0.961-0.142 1.273s0.883 0.248 1.273-0.143c0.107-0.108 0.591-0.592 0.699-0.699zM3.334 15.533c-0.108 0.109-0.593 0.594-0.7 0.701-0.391 0.391-0.454 0.959-0.142 1.271s0.883 0.25 1.272-0.141c0.108-0.107 0.593-0.592 0.7-0.699 0.391-0.391 0.454-0.961 0.142-1.274s-0.883-0.247-1.272 0.142zM3.765 2.635c-0.39-0.391-0.961-0.455-1.273-0.143s-0.248 0.883 0.141 1.274c0.108 0.107 0.593 0.592 0.7 0.699 0.391 0.391 0.96 0.455 1.272 0.143s0.249-0.883-0.141-1.273c-0.107-0.108-0.591-0.593-0.699-0.7zM15.534 16.666c0.108 0.107 0.593 0.592 0.7 0.699 0.391 0.391 0.96 0.453 1.272 0.143 0.312-0.312 0.249-0.883-0.142-1.273-0.107-0.107-0.592-0.592-0.699-0.699-0.391-0.391-0.961-0.455-1.274-0.143s-0.248 0.882 0.143 1.273z"></path>
</symbol>
<symbol id="icon-magnifying-glass" viewBox="0 0 20 20">
<title>magnifying-glass</title>
<path d="M17.545 15.467l-3.779-3.779c0.57-0.935 0.898-2.035 0.898-3.21 0-3.417-2.961-6.377-6.378-6.377s-6.186 2.769-6.186 6.186c0 3.416 2.961 6.377 6.377 6.377 1.137 0 2.2-0.309 3.115-0.844l3.799 3.801c0.372 0.371 0.975 0.371 1.346 0l0.943-0.943c0.371-0.371 0.236-0.84-0.135-1.211zM4.004 8.287c0-2.366 1.917-4.283 4.282-4.283s4.474 2.107 4.474 4.474c0 2.365-1.918 4.283-4.283 4.283s-4.473-2.109-4.473-4.474z"></path>
</symbol>
<symbol id="icon-man" viewBox="0 0 20 20">
<title>man</title>
<path d="M10 4c1.104 0 2-0.896 2-2s-0.896-2-2-2-2 0.895-2 2c0 1.104 0.896 2 2 2zM15.978 11.583c-0.385-1.775-1.058-4.688-2.042-5.894-0.957-1.173-2.885-1.222-3.936-1.222v0c-1.051 0-2.979 0.049-3.936 1.222-0.984 1.206-1.657 4.119-2.042 5.894-0.213 0.983 1.154 1.344 1.511 0.355 0.531-1.473 0.941-2.71 1.839-3.736 0.472 2.907-1.27 7.966-1.372 10.798 0 0.552 0.448 1 1 1 0.426 0 0.79-0.266 0.934-0.642 0.457-1.587 2.066-6.003 2.066-6.003v0 0c0 0 1.609 4.416 2.066 6.003 0.144 0.376 0.508 0.642 0.934 0.642 0.552 0 1-0.448 1-1-0.102-2.832-1.844-7.891-1.372-10.797 0.898 1.026 1.308 2.263 1.839 3.736 0.356 0.988 1.724 0.627 1.511-0.356z"></path>
</symbol>
<symbol id="icon-tree" viewBox="0 0 20 20">
<title>tree</title>
<path d="M20 10c0-1.361-0.758-2.616-2.031-3.622-0.002-0.001-0.004-0.001-0.005-0.003-0.362-3.572-3.787-6.375-7.964-6.375s-7.602 2.803-7.964 6.375c-0.001 0.002-0.003 0.002-0.005 0.003-1.273 1.006-2.031 2.261-2.031 3.622 0 3.112 3.947 5.669 9 5.97 0 0.338 0 0.683 0 1.030 0 1-1.821 1.911-1.821 1.911-0.099 0.049-0.148 0.173-0.109 0.277 0 0 0.305 0.812 0.93 0.812s1.124-0.5 2.374-0.5 2.439 0.432 2.439 0.432c0.102 0.038 0.251 0.005 0.329-0.073l0.717-0.717c0.078-0.078 0.058-0.173-0.046-0.212 0 0-1.812-0.68-1.812-1.93 0-0.312 0-0.706 0-1.121 4.564-0.555 7.999-2.976 7.999-5.879zM2 10c0-1.019 0.768-1.945 2.022-2.651-0.010-0.116-0.022-0.232-0.022-0.349 0-2.762 2.687-5 6-5s6 2.238 6 5c0 0.117-0.012 0.233-0.021 0.349 1.253 0.706 2.021 1.632 2.021 2.651 0 1.864-2.551 3.424-5.999 3.869 0-0.401 0-0.668 0-0.668 0-0.11 0.065-0.262 0.145-0.337l1.833-1.726c0.080-0.076 0.146-0.227 0.146-0.337v-0.851c0-0.11-0.078-0.155-0.172-0.099l-1.779 1.047c-0.096 0.056-0.173 0.012-0.173-0.099v-3.599c0-0.11-0.085-0.172-0.19-0.137l-2.621 0.874c-0.104 0.035-0.189 0.153-0.189 0.263v2.6c0 0.11-0.079 0.158-0.177 0.107l-2.022-1.064c-0.097-0.051-0.24-0.030-0.318 0.048l-0.342 0.342c-0.078 0.078-0.073 0.201 0.009 0.273l2.7 2.361c0.083 0.073 0.15 0.222 0.15 0.332 0 0 0 0.298 0 0.765-3.945-0.245-7.001-1.924-7.001-3.964z"></path>
</symbol>
</defs>
</svg>
